<svg width="419" height="420" viewBox="0 0 419 420" fill="none" xmlns="http://www.w3.org/2000/svg">
<mask id="path-1-inside-1_56_22" fill="white">
<path d="M333.255 351.34C340.962 360.16 340.115 373.659 330.561 380.435C293.89 406.446 249.637 420.078 204.317 418.975C151.897 417.699 101.863 396.804 64.1049 360.42C26.3468 324.037 3.61206 274.812 0.394544 222.475C-2.82297 170.139 13.7109 118.499 46.7279 77.7646C79.745 37.0297 126.843 10.1635 178.711 2.47641C230.58 -5.21067 283.445 6.84074 326.858 36.2486C370.27 65.6564 401.07 110.281 413.171 161.301C423.632 205.411 419.457 251.527 401.602 292.789C396.95 303.538 383.919 307.162 373.695 301.447V301.447C363.47 295.732 359.954 282.845 364.328 271.979C377.159 240.102 379.907 204.859 371.898 171.089C362.249 130.403 337.687 94.8179 303.068 71.3668C268.449 47.9157 226.292 38.3053 184.93 44.4354C143.567 50.5654 106.01 71.9897 79.6802 104.474C53.3509 136.957 40.1661 178.137 42.7318 219.872C45.2976 261.608 63.4273 300.862 93.5374 329.876C123.647 358.89 163.547 375.553 205.349 376.57C240.045 377.414 273.956 367.43 302.486 348.277C312.211 341.749 325.547 342.52 333.255 351.34V351.34Z"/>
</mask>
<path d="M333.255 351.34C340.962 360.16 340.115 373.659 330.561 380.435C293.89 406.446 249.637 420.078 204.317 418.975C151.897 417.699 101.863 396.804 64.1049 360.42C26.3468 324.037 3.61206 274.812 0.394544 222.475C-2.82297 170.139 13.7109 118.499 46.7279 77.7646C79.745 37.0297 126.843 10.1635 178.711 2.47641C230.58 -5.21067 283.445 6.84074 326.858 36.2486C370.27 65.6564 401.07 110.281 413.171 161.301C423.632 205.411 419.457 251.527 401.602 292.789C396.95 303.538 383.919 307.162 373.695 301.447V301.447C363.47 295.732 359.954 282.845 364.328 271.979C377.159 240.102 379.907 204.859 371.898 171.089C362.249 130.403 337.687 94.8179 303.068 71.3668C268.449 47.9157 226.292 38.3053 184.93 44.4354C143.567 50.5654 106.01 71.9897 79.6802 104.474C53.3509 136.957 40.1661 178.137 42.7318 219.872C45.2976 261.608 63.4273 300.862 93.5374 329.876C123.647 358.89 163.547 375.553 205.349 376.57C240.045 377.414 273.956 367.43 302.486 348.277C312.211 341.749 325.547 342.52 333.255 351.34V351.34Z" fill="#e2c479" stroke="#e2c479" stroke-width="5.52308" mask="#e2c479"/>
<defs>
<linearGradient id="paint0_linear_56_22" x1="208.272" y1="399.26" x2="-9.2795e-05" y2="209.625" gradientUnits="userSpaceOnUse">
<stop stop-color="#E2C479"/>
<stop offset="1" stop-color="#A08950"/>
</linearGradient>
<linearGradient id="paint1_linear_56_22" x1="418.823" y1="209.625" x2="-7.01888e-05" y2="209.625" gradientUnits="userSpaceOnUse">
<stop stop-color="white"/>
<stop offset="1" stop-color="white" stop-opacity="0"/>
</linearGradient>
</defs>
</svg>
